# xmcd
#
# Track frame offsets:
#	150
#	9253
#	23920
#	38099
#	51992
#	63924
#	77874
#	92891
#	106388
#	121506
#	131046
#	146842
#	159733
#	173258
#	186557
#	199295
#	213418
#	224900
#	239030
#	252327
#
# Disc length: 3553
#
# Revision: 1
# Processed by: cddbd v1.5.1PL0 Copyright (c) Steve Scherf et al.
# Submitted via: CDex 1.51
# Normalized: r0:TRMNUM
#
DISCID=2b0ddf14
DTITLE=Peggy Lee - Let's Do It
DYEAR=1900
DGENRE=Jazz
TTITLE0=Let's Do It (Let's Fall In Love)
TTITLE1=I Got It Bad And That Ain't Good
TTITLE2=Somebody Else Is Taking My Place
TTITLE3=Everything I Love
TTITLE4=I'm Glad I Waited For You
TTITLE5=Waitin' For The Train To Come In
TTITLE6=I Don't Know Enough About You
TTITLE7=It's All Over Now
TTITLE8=I'm Confessin' (That I Love You)
TTITLE9=Rockin' Chair
TTITLE10=Summertime
TTITLE11=You Can Depend On Me
TTITLE12=I'll Dance At Your Wedding
TTITLE13=Somebody Loves Me
TTITLE14=Bye Bye Blues
TTITLE15=Don't Smoke In Bed
TTITLE16=I Can't Give You Anything But Love
TTITLE17=Stormy Weather
TTITLE18=Them There Eyes
TTITLE19=There'll Be Some Changes Made
EXTD=
EXTT0=
EXTT1=
EXTT2=
EXTT3=
EXTT4=
EXTT5=
EXTT6=
EXTT7=
EXTT8=
EXTT9=
EXTT10=
EXTT11=
EXTT12=
EXTT13=
EXTT14=
EXTT15=
EXTT16=
EXTT17=
EXTT18=
EXTT19=
PLAYORDER=
